<svg class="absolute inset-0 w-full h-full" viewBox="0 0 1200 800" preserveAspectRatio="xMidYMid slice"><defs><linearGradient id="poly1" x1="0%" y1="0%" x2="100%" y2="100%"><stop offset="0%" stop-color="hsl(var(--primary))" stop-opacity="0.1"></stop><stop offset="100%" stop-color="hsl(var(--primary))" stop-opacity="0.05"></stop></linearGradient><linearGradient id="poly2" x1="0%" y1="100%" x2="100%" y2="0%"><stop offset="0%" stop-color="hsl(var(--secondary))" stop-opacity="0.08"></stop><stop offset="100%" stop-color="hsl(var(--secondary))" stop-opacity="0.03"></stop></linearGradient><linearGradient id="poly3" x1="50%" y1="0%" x2="50%" y2="100%"><stop offset="0%" stop-color="hsl(var(--accent))" stop-opacity="0.06"></stop><stop offset="100%" stop-color="hsl(var(--accent))" stop-opacity="0.02"></stop></linearGradient></defs><polygon points="0,0 400,0 200,300" fill="url(#poly1)"></polygon><polygon points="400,0 800,0 600,250" fill="url(#poly2)"></polygon><polygon points="800,0 1200,0 1000,200" fill="url(#poly1)"></polygon><polygon points="0,300 300,300 150,600" fill="url(#poly3)"></polygon><polygon points="300,250 700,300 500,550" fill="url(#poly1)"></polygon><polygon points="700,200 1100,250 900,500" fill="url(#poly2)"></polygon><polygon points="1100,250 1200,400 1200,0" fill="url(#poly3)"></polygon><polygon points="0,600 200,800 0,800" fill="url(#poly2)"></polygon><polygon points="200,550 600,600 400,800" fill="url(#poly1)"></polygon><polygon points="600,500 1000,550 800,800" fill="url(#poly3)"></polygon><polygon points="1000,400 1200,600 1200,800 800,800" fill="url(#poly2)"></polygon><polygon points="100,100 200,80 150,180" fill="url(#poly3)"></polygon><polygon points="900,150 1000,120 950,220" fill="url(#poly1)"></polygon><polygon points="300,400 400,380 350,480" fill="url(#poly2)"></polygon><polygon points="700,350 800,330 750,430" fill="url(#poly3)"></polygon><polygon points="50,500 150,480 100,580" fill="url(#poly1)"></polygon><polygon points="1050,500 1150,480 1100,580" fill="url(#poly2)"></polygon></svg>